<svg width="113" height="113" viewBox="0 0 113 113" fill="none" xmlns="http://www.w3.org/2000/svg">
<circle cx="56.5" cy="56.5" r="55.4727" stroke="white" stroke-width="2.05455"/>
<path fill-rule="evenodd" clip-rule="evenodd" d="M56.8418 90.4003C75.3751 90.4003 90.3993 75.3761 90.3993 56.8427C90.3993 38.3094 75.3751 23.2852 56.8418 23.2852C38.3084 23.2852 23.2842 38.3094 23.2842 56.8427C23.2842 75.3761 38.3084 90.4003 56.8418 90.4003ZM34.2335 51.6571L34.5546 70.822C54.2548 73.8468 56.1608 44.5801 47.0414 43.7744L36.5007 43.951L35.6388 49.7165L43.7839 49.5801C47.9227 49.5419 48.7758 61.4779 41.158 64.481L40.9413 51.5447L34.2335 51.6571ZM52.4007 59.6349L53.0392 54.8316L63.8194 54.651L63.181 59.4543L52.4007 59.6349ZM68.3876 70.6509L66.8539 64.9255C70.0886 63.7915 70.9604 62.9955 72.0676 61.4836C68.0142 60.0436 66.4944 58.7675 64.7849 55.8543C60.7989 46.8153 69.337 41.5598 76.0833 43.6836C83.3102 45.9588 81.787 69.4679 68.3876 70.6509ZM74.5104 55.2765C75.3804 49.99 74.3156 47.4041 71.0362 48.1459C67.9609 49.6623 69.7193 55.3568 74.5104 55.2765Z" fill="white"/>
<path d="M17.8945 56.3165C17.9817 57.3236 17.8158 58.1702 17.3968 58.8564C16.9696 59.5432 16.3118 59.9481 15.4233 60.0712L15.201 57.5044C15.5019 57.4547 15.7153 57.3463 15.841 57.1793C15.9668 57.0122 16.0191 56.8058 15.9978 56.5602C15.9786 56.3391 15.9098 56.1634 15.7913 56.033C15.6639 55.8951 15.5019 55.8343 15.3053 55.8506C15.0514 55.8716 14.8651 56.0066 14.7465 56.2556C14.6278 56.5046 14.5055 56.9023 14.3796 57.4487C14.2401 58.0292 14.0996 58.5027 13.9581 58.869C13.8077 59.2278 13.576 59.5521 13.2628 59.8419C12.9408 60.1242 12.5055 60.2881 11.9567 60.3335C11.3998 60.3796 10.9127 60.2798 10.4955 60.0339C10.0701 59.7888 9.73371 59.4291 9.48642 58.9548C9.23913 58.4805 9.08854 57.9322 9.03466 57.31C8.94746 56.3029 9.1155 55.4808 9.53878 54.8438C9.95316 54.1993 10.5845 53.8213 11.4327 53.7098L11.6592 56.3257C11.3978 56.3556 11.2083 56.4538 11.0908 56.6202C10.9725 56.7784 10.9236 56.9762 10.9442 57.2137C10.9598 57.3938 11.0258 57.5368 11.1422 57.6426C11.2586 57.7484 11.4151 57.7932 11.6116 57.7769C11.7754 57.7633 11.9134 57.69 12.0257 57.5571C12.129 57.4166 12.2175 57.2484 12.2913 57.0526C12.3569 56.8576 12.4393 56.5704 12.5384 56.1911C12.6793 55.6269 12.8287 55.161 12.9866 54.7933C13.1356 54.4182 13.367 54.0898 13.6808 53.8081C13.9857 53.519 14.392 53.3534 14.8998 53.3114C15.4158 53.2686 15.8899 53.3613 16.3221 53.5894C16.7536 53.8093 17.1093 54.1551 17.3894 54.6266C17.6687 55.09 17.8371 55.6533 17.8945 56.3165Z" fill="white"/>
<path d="M9.68176 45.3253L18.2877 46.5367L17.9272 48.9258L9.32135 47.7144L9.68176 45.3253Z" fill="white"/>
<path d="M22.3819 34.7669L21.4378 36.9909L15.6688 38.1542L20.1805 39.9525L19.2364 42.1766L11.1634 38.9587L12.1075 36.7346L17.9337 35.5942L13.3648 33.773L14.3089 31.549L22.3819 34.7669Z" fill="white"/>
<path d="M23.7644 23.6345C23.4947 23.5941 23.2312 23.6277 22.974 23.7356C22.7221 23.8372 22.4883 24.012 22.2724 24.2599C21.8731 24.7186 21.71 25.2062 21.7832 25.7228C21.8617 26.2331 22.1584 26.6992 22.6733 27.121C23.2519 27.595 23.8151 27.8175 24.3631 27.7885C24.9101 27.7482 25.4183 27.4583 25.8878 26.9191C26.4436 26.2806 26.5445 25.5829 26.1907 24.8258L24.5962 26.6574L23.2517 25.5559L26.2141 22.153L28.0259 23.6372C28.2578 24.0715 28.4081 24.5556 28.4768 25.0898C28.5508 25.6177 28.5061 26.1757 28.3426 26.7639C28.1728 27.3468 27.8531 27.9079 27.3837 28.4472C26.8117 29.1043 26.1614 29.5697 25.4329 29.8437C24.7034 30.1062 23.9597 30.166 23.202 30.023C22.4433 29.8687 21.7302 29.5181 21.0626 28.9713C20.4015 28.4296 19.9321 27.8115 19.6546 27.117C19.3762 26.411 19.3124 25.6897 19.4634 24.9533C19.6081 24.2117 19.9664 23.5123 20.5384 22.8553C21.256 22.0309 22.053 21.5157 22.9293 21.3097C23.8057 21.1038 24.6533 21.2248 25.4723 21.6727L23.7644 23.6345Z" fill="white"/>
<path d="M37.5046 20.3236L33.114 18.5335L35.1754 21.7367L33.1097 22.9899L28.4066 15.6817L30.4723 14.4285L32.5003 17.5798L32.7804 13.0282L35.1623 11.5832L34.7141 16.7845L40.0024 18.8083L37.5046 20.3236Z" fill="white"/>
<path d="M47.8832 16.463C47.0916 16.6509 46.3179 16.6402 45.5623 16.431C44.8047 16.2138 44.148 15.8249 43.5923 15.2642C43.0426 14.6937 42.6638 13.9939 42.4559 13.1649C42.248 12.3359 42.254 11.549 42.474 10.8042C42.6999 10.0496 43.0987 9.41026 43.6704 8.88608C44.2422 8.36191 44.9238 8.0059 45.7154 7.81805C46.5151 7.6283 47.2887 7.63897 48.0363 7.85006C48.7919 8.05926 49.4446 8.44913 49.9943 9.01967C50.542 9.58225 50.9198 10.2781 51.1277 11.1071C51.3356 11.9361 51.3306 12.727 51.1127 13.4797C50.8928 14.2244 50.4979 14.8628 49.9282 15.395C49.3565 15.9192 48.6748 16.2752 47.8832 16.463ZM47.3375 14.2868C47.9372 14.1445 48.36 13.8373 48.6059 13.3651C48.8598 12.891 48.9048 12.3271 48.7409 11.6735C48.573 11.0039 48.2651 10.5195 47.8174 10.2204C47.3756 9.91136 46.8548 9.82801 46.2551 9.97032C45.6474 10.1145 45.2206 10.4227 44.9747 10.8949C44.7268 11.3591 44.6868 11.926 44.8547 12.5956C45.0207 13.2573 45.3245 13.7426 45.7663 14.0516C46.206 14.3526 46.7298 14.431 47.3375 14.2868Z" fill="white"/>
<path d="M63.8698 15.9635L61.4608 15.7777L58.656 10.6902L58.2529 15.5304L55.844 15.3447L56.5651 6.68391L58.9741 6.86965L61.7738 12.0186L62.182 7.11699L64.591 7.30273L63.8698 15.9635Z" fill="white"/>
<path d="M75.3573 13.5744C75.3176 13.3108 75.2075 13.0766 75.0268 12.8717C74.8537 12.6699 74.6145 12.508 74.3092 12.3861C73.7445 12.1605 73.2208 12.1636 72.7382 12.3956C72.2633 12.6305 71.8955 13.0543 71.6349 13.6668C71.3422 14.355 71.2903 14.9492 71.4793 15.4493C71.6792 15.945 72.1111 16.3254 72.7751 16.5906C73.5612 16.9046 74.2717 16.777 74.9067 16.2079L72.6515 15.3071L73.3319 13.7076L77.5218 15.3812L76.6049 17.5365C76.2492 17.8899 75.8208 18.1832 75.3198 18.4166C74.8263 18.653 74.2687 18.7886 73.6468 18.8233C73.0281 18.8504 72.3867 18.7314 71.7228 18.4662C70.9138 18.1431 70.2688 17.6864 69.7877 17.0961C69.3175 16.5013 69.041 15.829 68.9581 15.0793C68.8861 14.3251 69.019 13.5509 69.3568 12.7569C69.6914 11.9704 70.1568 11.3379 70.7532 10.8595C71.3605 10.3766 72.0455 10.0884 72.8085 9.99503C73.5747 9.89408 74.3622 10.0052 75.1712 10.3283C76.1862 10.7337 76.9228 11.3111 77.3809 12.0603C77.839 12.8095 77.9696 13.6358 77.7728 14.5392L75.3573 13.5744Z" fill="white"/>
<path d="M87.006 29.2084L88.0735 24.7167L85.1764 27.1898L83.5538 25.3996L90.1637 19.7571L91.7863 21.5473L88.9361 23.9804L93.5993 23.5476L95.4703 25.6118L90.1196 25.9834L88.9681 31.3731L87.006 29.2084Z" fill="white"/>
<path d="M98.2944 34.1142L97.007 34.7077L98.2247 37.1998L96.5567 37.9688L95.339 35.4767L93.9173 36.1322L95.2973 38.9565L93.5397 39.7669L91.0989 34.7717L98.9913 31.133L101.432 36.1282L99.6745 36.9385L98.2944 34.1142Z" fill="white"/>
<path d="M104.46 47.504L98.8006 48.5603C97.8392 48.7397 97.0525 48.6149 96.4403 48.1858C95.8297 47.7647 95.4347 47.0986 95.2553 46.1874C95.0648 45.2198 95.183 44.3952 95.6099 43.7137C96.0385 43.0401 96.7617 42.6084 97.7796 42.4184L98.2417 44.7648C97.5727 44.898 97.2859 45.2065 97.3812 45.6903C97.4669 46.1258 97.7844 46.2922 98.3338 46.1897L103.993 45.1334L104.46 47.504Z" fill="white"/>
<path d="M104.655 56.4853L99.6319 56.0542C99.1652 56.0141 98.7951 56.0896 98.5216 56.2805C98.2473 56.4797 98.0897 56.8002 98.0488 57.2421C98.008 57.684 98.1042 58.0263 98.3376 58.2691C98.5784 58.5207 98.9281 58.6662 99.3866 58.7055L104.41 59.1366L104.187 61.5425L99.164 61.1114C98.3698 61.0432 97.7057 60.8171 97.1718 60.4331C96.646 60.0498 96.2667 59.5554 96.0339 58.9498C95.8085 58.3531 95.7284 57.7028 95.7935 56.9991C95.8586 56.2953 96.0561 55.6772 96.386 55.1446C96.7233 54.6209 97.1851 54.2234 97.7714 53.952C98.357 53.6888 99.051 53.5917 99.8534 53.6606L104.877 54.0917L104.655 56.4853Z" fill="white"/>
<path d="M18.6838 88.0745C17.966 87.2806 17.5638 86.4594 17.4771 85.611C17.3969 84.7568 17.6911 83.9923 18.3596 83.3175L20.1891 85.341C19.9678 85.5763 19.8577 85.8049 19.8588 86.0267C19.86 86.2485 19.9481 86.4563 20.1232 86.6499C20.2807 86.8242 20.4511 86.9283 20.6342 86.9621C20.8296 86.9966 21.0047 86.9438 21.1596 86.8038C21.3597 86.6229 21.43 86.3892 21.3705 86.1028C21.311 85.8164 21.1594 85.4022 20.9156 84.8601C20.6614 84.2805 20.4766 83.7907 20.3612 83.3906C20.2581 82.9911 20.2455 82.5685 20.3234 82.1227C20.4136 81.6775 20.6749 81.2594 21.1074 80.8684C21.5463 80.4716 22.0199 80.2429 22.5281 80.1822C23.0428 80.1157 23.5559 80.2032 24.0674 80.4445C24.5789 80.6859 25.0564 81.0519 25.4999 81.5424C26.2176 82.3363 26.6024 83.1381 26.654 83.9478C26.7179 84.758 26.4288 85.4827 25.7867 86.1219L23.9223 84.0597C24.123 83.8665 24.2195 83.6619 24.2119 83.4459C24.2102 83.2363 24.1247 83.038 23.9554 82.8508C23.827 82.7088 23.68 82.6306 23.5144 82.6161C23.3488 82.6016 23.1886 82.6643 23.0337 82.8044C22.9046 82.9211 22.8354 83.0716 22.8261 83.256C22.8291 83.4409 22.8622 83.6398 22.9254 83.8524C22.9951 84.0592 23.1096 84.3545 23.2689 84.7384C23.5115 85.305 23.684 85.7942 23.7865 86.206C23.9012 86.6184 23.9167 87.0443 23.833 87.4836C23.7616 87.9236 23.5258 88.3245 23.1256 88.6863C22.7189 89.0539 22.2609 89.2804 21.7514 89.3656C21.2478 89.4573 20.7273 89.3941 20.19 89.1761C19.6585 88.9645 19.1564 88.5973 18.6838 88.0745Z" fill="white"/>
<path d="M31.0553 96.3458L28.3234 94.5615L27.0873 95.547L24.8362 94.0767L32.6764 88.2068L35.1461 89.8199L32.9119 99.3512L30.6498 97.8737L31.0553 96.3458ZM31.5905 94.3569L32.3872 91.3229L29.9403 93.2792L31.5905 94.3569Z" fill="white"/>
<path d="M40.6448 100.402L43.3369 101.363L42.6787 103.207L37.5773 101.386L40.6708 92.7197L43.0801 93.5797L40.6448 100.402Z" fill="white"/>
<path d="M53.5242 103.634L50.2799 103.286L49.6262 104.725L46.9529 104.437L51.2721 95.6471L54.2049 95.9625L56.5431 105.469L53.8568 105.18L53.5242 103.634ZM53.0977 101.619L52.4296 98.5546L51.1381 101.409L53.0977 101.619Z" fill="white"/>
<path d="M67.1991 95.1059L67.489 97.1213L65.0602 97.4706L66.0804 104.563L63.5482 104.927L62.528 97.8348L60.1251 98.1805L59.8352 96.1651L67.1991 95.1059Z" fill="white"/>
<path d="M72.631 93.3065L75.6624 101.995L73.247 102.837L70.2155 94.1493L72.631 93.3065Z" fill="white"/>
<path d="M82.7467 91.5282C82.4933 91.3978 82.2212 91.3452 81.9304 91.3704C81.6471 91.391 81.357 91.4923 81.0603 91.6742C80.5113 92.0107 80.1865 92.4548 80.0859 93.0065C79.9926 93.5536 80.1302 94.1276 80.4986 94.7284C80.9125 95.4035 81.3955 95.8167 81.9476 95.9681C82.5026 96.1076 83.1028 95.9795 83.7482 95.5838C84.5122 95.1153 84.846 94.4361 84.7494 93.5461L82.5573 94.89L81.5954 93.3211L85.668 90.8242L86.9642 92.9383C87.0483 93.4584 87.0349 94.0025 86.9239 94.5706C86.8204 95.1342 86.5891 95.6894 86.2302 96.236C85.8668 96.7753 85.3624 97.2427 84.717 97.6384C83.9307 98.1205 83.131 98.3811 82.3181 98.4203C81.508 98.4474 80.7518 98.2629 80.0496 97.8667C79.3503 97.4585 78.7618 96.865 78.2843 96.0861C77.8112 95.3146 77.5537 94.5283 77.5117 93.7273C77.4726 92.9144 77.6512 92.1568 78.0474 91.4546C78.439 90.7449 79.028 90.1491 79.8143 89.667C80.801 89.0621 81.7625 88.7991 82.699 88.8782C83.6354 88.9573 84.434 89.3608 85.0946 90.0887L82.7467 91.5282Z" fill="white"/>
<path d="M95.4789 86.5676L93.2562 88.9566L94.0172 90.3421L92.1857 92.3106L87.7339 83.5868L89.7432 81.4272L98.7561 85.2489L96.9157 87.227L95.4789 86.5676ZM93.6099 85.7022L90.7555 84.4014L92.2674 87.1452L93.6099 85.7022Z" fill="white"/>
<circle cx="15.0663" cy="69.8543" r="2.05455" fill="white"/>
<circle cx="98.618" cy="71.2245" r="2.05455" fill="white"/>
</svg>
